<mxfile host="drawio-plugin" modified="2022-05-13T10:33:28.151Z" agent="5.0 (Macintosh; Intel Mac OS X 12_2_1) AppleWebKit/537.36 (KHTML, like Gecko) Chrome/89.0.4389.114 Safari/537.36" etag="HZezdPbyx2XyydP77iW7" version="15.5.4" type="embed"><diagram id="-wbuQKQNLFsFOtgeh2qM" name="Page-1"><mxGraphModel dx="942" dy="446" grid="0" gridSize="10" guides="1" tooltips="1" connect="1" arrows="1" fold="1" page="1" pageScale="1" pageWidth="850" pageHeight="1100" math="0" shadow="0"><root><mxCell id="0"/><mxCell id="1" parent="0"/><mxCell id="24" value="ROOM" style="swimlane;" parent="1" vertex="1"><mxGeometry x="100" y="30" width="440" height="320" as="geometry"/></mxCell><mxCell id="25" value="&lt;h1&gt;&lt;div style=&quot;text-align: justify&quot;&gt;&lt;span style=&quot;font-weight: normal&quot;&gt;&lt;font style=&quot;font-size: 24px&quot;&gt;{&lt;/font&gt;&lt;/span&gt;&lt;/div&gt;&lt;div style=&quot;text-align: justify&quot;&gt;&lt;span style=&quot;font-weight: normal&quot;&gt;&lt;font style=&quot;font-size: 24px&quot;&gt;&quot;users&quot;: [{&quot;id&quot;: 1, &quot;login&quot;: name}, ...],&lt;/font&gt;&lt;/span&gt;&lt;/div&gt;&lt;div style=&quot;text-align: justify&quot;&gt;&lt;span style=&quot;font-weight: normal&quot;&gt;&lt;font style=&quot;font-size: 24px&quot;&gt;&quot;admin&quot;: &quot;user_id&quot;,&lt;/font&gt;&lt;/span&gt;&lt;/div&gt;&lt;/h1&gt;&lt;h1 style=&quot;text-align: justify&quot;&gt;&lt;font style=&quot;font-size: 24px&quot;&gt;}&lt;/font&gt;&lt;/h1&gt;" style="text;html=1;strokeColor=none;fillColor=none;align=center;verticalAlign=middle;whiteSpace=wrap;rounded=0;" parent="1" vertex="1"><mxGeometry x="117" y="71" width="410" height="270" as="geometry"/></mxCell></root></mxGraphModel></diagram></mxfile>